<svg width="34" height="34" viewBox="0 0 34 34" fill="none" xmlns="http://www.w3.org/2000/svg">
<path d="M31.4917 12.81C30.9363 12.2295 30.3618 11.6314 30.1452 11.1055C29.9449 10.6237 29.9331 9.82526 29.9213 9.05184C29.8992 7.61399 29.8756 5.98464 28.7428 4.85175C27.6099 3.71886 25.9805 3.69528 24.5427 3.67319C23.7692 3.6614 22.9708 3.64962 22.489 3.44926C21.9646 3.2327 21.365 2.65815 20.7845 2.10276C19.768 1.12603 18.613 0.0196533 17.075 0.0196533C15.537 0.0196533 14.3835 1.12603 13.3655 2.10276C12.7851 2.65815 12.1869 3.2327 11.661 3.44926C11.1822 3.64962 10.3808 3.6614 9.60738 3.67319C8.16953 3.69528 6.54018 3.71886 5.40729 4.85175C4.2744 5.98464 4.25819 7.61399 4.22873 9.05184C4.21694 9.82526 4.20516 10.6237 4.0048 11.1055C3.78824 11.6299 3.21369 12.2295 2.6583 12.81C1.68157 13.8265 0.575195 14.9815 0.575195 16.5195C0.575195 18.0575 1.68157 19.211 2.6583 20.229C3.21369 20.8094 3.78824 21.4076 4.0048 21.9335C4.20516 22.4152 4.21694 23.2137 4.22873 23.9871C4.25083 25.425 4.2744 27.0543 5.40729 28.1872C6.54018 29.3201 8.16953 29.3437 9.60738 29.3658C10.3808 29.3776 11.1793 29.3893 11.661 29.5897C12.1855 29.8063 12.7851 30.3808 13.3655 30.9362C14.382 31.9129 15.537 33.0193 17.075 33.0193C18.613 33.0193 19.7666 31.9129 20.7845 30.9362C21.365 30.3808 21.9631 29.8063 22.489 29.5897C22.9708 29.3893 23.7692 29.3776 24.5427 29.3658C25.9805 29.3437 27.6099 29.3201 28.7428 28.1872C29.8756 27.0543 29.8992 25.425 29.9213 23.9871C29.9331 23.2137 29.9449 22.4152 30.1452 21.9335C30.3618 21.409 30.9363 20.8094 31.4917 20.229C32.4685 19.2125 33.5748 18.0575 33.5748 16.5195C33.5748 14.9815 32.4685 13.8279 31.4917 12.81ZM29.7902 18.5982C29.0845 19.3348 28.3538 20.0964 27.9664 21.0319C27.5951 21.9305 27.5789 22.9574 27.5642 23.9518C27.5495 24.983 27.5333 26.0629 27.0751 26.5196C26.6169 26.9762 25.5444 26.9939 24.5073 27.0087C23.5129 27.0234 22.4861 27.0396 21.5874 27.4108C20.6519 27.7983 19.8903 28.529 19.1537 29.2347C18.4171 29.9403 17.6643 30.6622 17.075 30.6622C16.4857 30.6622 15.727 29.9374 14.9963 29.2347C14.2656 28.5319 13.4981 27.7983 12.5626 27.4108C11.664 27.0396 10.6371 27.0234 9.64273 27.0087C8.6115 26.9939 7.53164 26.9777 7.07495 26.5196C6.61826 26.0614 6.60058 24.9889 6.58585 23.9518C6.57111 22.9574 6.55491 21.9305 6.18366 21.0319C5.79621 20.0964 5.06551 19.3348 4.35984 18.5982C3.65418 17.8616 2.93231 17.1088 2.93231 16.5195C2.93231 15.9302 3.65713 15.1715 4.35984 14.4408C5.06256 13.7101 5.79621 12.9426 6.18366 12.0071C6.55491 11.1084 6.57111 10.0816 6.58585 9.08719C6.60058 8.05595 6.61678 6.9761 7.07495 6.51941C7.53311 6.06271 8.6056 6.04504 9.64273 6.0303C10.6371 6.01557 11.664 5.99937 12.5626 5.62812C13.4981 5.24067 14.2597 4.50996 14.9963 3.8043C15.7329 3.09864 16.4857 2.37677 17.075 2.37677C17.6643 2.37677 18.423 3.10159 19.1537 3.8043C19.8844 4.50702 20.6519 5.24067 21.5874 5.62812C22.4861 5.99937 23.5129 6.01557 24.5073 6.0303C25.5385 6.04504 26.6184 6.06124 27.0751 6.51941C27.5318 6.97757 27.5495 8.05006 27.5642 9.08719C27.5789 10.0816 27.5951 11.1084 27.9664 12.0071C28.3538 12.9426 29.0845 13.7042 29.7902 14.4408C30.4959 15.1774 31.2177 15.9302 31.2177 16.5195C31.2177 17.1088 30.4929 17.8675 29.7902 18.5982ZM23.8016 12.15C23.9112 12.2594 23.9982 12.3894 24.0575 12.5325C24.1168 12.6756 24.1473 12.8289 24.1473 12.9838C24.1473 13.1387 24.1168 13.292 24.0575 13.4351C23.9982 13.5782 23.9112 13.7082 23.8016 13.8176L15.5517 22.0675C15.4423 22.1771 15.3123 22.2641 15.1692 22.3234C15.0261 22.3827 14.8728 22.4132 14.7179 22.4132C14.563 22.4132 14.4097 22.3827 14.2666 22.3234C14.1235 22.2641 13.9935 22.1771 13.8841 22.0675L10.3484 18.5319C10.1273 18.3107 10.003 18.0108 10.003 17.698C10.003 17.3853 10.1273 17.0854 10.3484 16.8642C10.5695 16.6431 10.8695 16.5188 11.1822 16.5188C11.495 16.5188 11.7949 16.6431 12.0161 16.8642L14.7179 19.5675L22.134 12.15C22.2434 12.0404 22.3734 11.9535 22.5165 11.8942C22.6596 11.8348 22.8129 11.8043 22.9678 11.8043C23.1227 11.8043 23.2761 11.8348 23.4191 11.8942C23.5622 11.9535 23.6922 12.0404 23.8016 12.15Z" fill="#E0F3EC"/>
</svg>
