<svg width="26" height="25" viewBox="0 0 26 25" fill="none" xmlns="http://www.w3.org/2000/svg">
<path d="M24 7.00016H19.615C19.6637 6.95891 19.7137 6.91891 19.7612 6.87516C20.1409 6.53788 20.4468 6.1259 20.66 5.66497C20.8731 5.20405 20.9889 4.70411 21 4.19641C21.0164 3.641 20.9191 3.0881 20.7142 2.57164C20.5092 2.05519 20.2008 1.58608 19.8079 1.19311C19.4151 0.800152 18.9461 0.491628 18.4297 0.286484C17.9133 0.0813393 17.3604 -0.0160964 16.805 0.000158263C16.2971 0.0110981 15.7969 0.126764 15.3358 0.339917C14.8746 0.553069 14.4624 0.859119 14.125 1.23891C13.6581 1.78003 13.2785 2.39071 13 3.04891C12.7215 2.39071 12.3419 1.78003 11.875 1.23891C11.5376 0.859119 11.1254 0.553069 10.6642 0.339917C10.2031 0.126764 9.70291 0.0110981 9.195 0.000158263C8.63959 -0.0160964 8.08671 0.0813393 7.57032 0.286484C7.05392 0.491628 6.58491 0.800152 6.19206 1.19311C5.79922 1.58608 5.49083 2.05519 5.28584 2.57164C5.08085 3.0881 4.98358 3.641 5 4.19641C5.01111 4.70411 5.12686 5.20405 5.34001 5.66497C5.55315 6.1259 5.85911 6.53788 6.23875 6.87516C6.28625 6.91641 6.33625 6.95641 6.385 7.00016H2C1.46957 7.00016 0.960859 7.21087 0.585786 7.58595C0.210714 7.96102 0 8.46973 0 9.00016V13.0002C0 13.5306 0.210714 14.0393 0.585786 14.4144C0.960859 14.7894 1.46957 15.0002 2 15.0002V23.0002C2 23.5306 2.21071 24.0393 2.58579 24.4144C2.96086 24.7894 3.46957 25.0002 4 25.0002H22C22.5304 25.0002 23.0391 24.7894 23.4142 24.4144C23.7893 24.0393 24 23.5306 24 23.0002V15.0002C24.5304 15.0002 25.0391 14.7894 25.4142 14.4144C25.7893 14.0393 26 13.5306 26 13.0002V9.00016C26 8.46973 25.7893 7.96102 25.4142 7.58595C25.0391 7.21087 24.5304 7.00016 24 7.00016ZM15.625 2.56391C15.7833 2.38906 15.9761 2.24883 16.1912 2.15203C16.4063 2.05523 16.6391 2.00395 16.875 2.00141H16.9363C17.2127 2.00314 17.486 2.06003 17.7402 2.16875C17.9944 2.27747 18.2244 2.43583 18.4166 2.63455C18.6088 2.83328 18.7594 3.06836 18.8596 3.32604C18.9597 3.58371 19.0075 3.85879 19 4.13516C18.9975 4.37103 18.9462 4.60383 18.8494 4.81894C18.7526 5.03405 18.6123 5.22682 18.4375 5.38516C17.2512 6.43516 15.2825 6.80516 14.0625 6.93516C14.2125 5.61141 14.625 3.68766 15.625 2.56391ZM7.61375 2.60891C8.00118 2.22152 8.52588 2.00275 9.07375 2.00016H9.135C9.37087 2.0027 9.60367 2.05398 9.81878 2.15078C10.0339 2.24758 10.2267 2.38781 10.385 2.56266C11.4338 3.74766 11.8038 5.71266 11.9338 6.92766C10.7188 6.80266 8.75375 6.42766 7.56875 5.37891C7.3939 5.22057 7.25367 5.0278 7.15687 4.81269C7.06008 4.59758 7.00879 4.36478 7.00625 4.12891C6.9985 3.84795 7.0479 3.56835 7.15147 3.30706C7.25504 3.04578 7.41061 2.80825 7.60875 2.60891H7.61375ZM2 9.00016H12V13.0002H2V9.00016ZM4 15.0002H12V23.0002H4V15.0002ZM22 23.0002H14V15.0002H22V23.0002ZM24 13.0002H14V9.00016H24V13.0002Z" fill="#024847"/>
</svg>
