<svg width="33" height="32" viewBox="0 0 33 32" fill="none" xmlns="http://www.w3.org/2000/svg">
<path d="M27.2075 10.2925L20.2075 3.2925C20.1146 3.19967 20.0042 3.12605 19.8829 3.07586C19.7615 3.02568 19.6314 2.9999 19.5 3H7.5C6.96957 3 6.46086 3.21071 6.08579 3.58579C5.71071 3.96086 5.5 4.46957 5.5 5V27C5.5 27.5304 5.71071 28.0391 6.08579 28.4142C6.46086 28.7893 6.96957 29 7.5 29H25.5C26.0304 29 26.5391 28.7893 26.9142 28.4142C27.2893 28.0391 27.5 27.5304 27.5 27V11C27.5001 10.8686 27.4743 10.7385 27.4241 10.6172C27.3739 10.4958 27.3003 10.3854 27.2075 10.2925ZM20.5 6.41375L24.0863 10H20.5V6.41375ZM25.5 27H7.5V5H18.5V11C18.5 11.2652 18.6054 11.5196 18.7929 11.7071C18.9804 11.8946 19.2348 12 19.5 12H25.5V27ZM20.2075 19.2925C20.3005 19.3854 20.3742 19.4957 20.4246 19.6171C20.4749 19.7385 20.5008 19.8686 20.5008 20C20.5008 20.1314 20.4749 20.2615 20.4246 20.3829C20.3742 20.5043 20.3005 20.6146 20.2075 20.7075L17.2075 23.7075C17.1146 23.8005 17.0043 23.8742 16.8829 23.9246C16.7615 23.9749 16.6314 24.0008 16.5 24.0008C16.3686 24.0008 16.2385 23.9749 16.1171 23.9246C15.9957 23.8742 15.8854 23.8005 15.7925 23.7075L12.7925 20.7075C12.6049 20.5199 12.4994 20.2654 12.4994 20C12.4994 19.7346 12.6049 19.4801 12.7925 19.2925C12.9801 19.1049 13.2346 18.9994 13.5 18.9994C13.7654 18.9994 14.0199 19.1049 14.2075 19.2925L15.5 20.5863V15C15.5 14.7348 15.6054 14.4804 15.7929 14.2929C15.9804 14.1054 16.2348 14 16.5 14C16.7652 14 17.0196 14.1054 17.2071 14.2929C17.3946 14.4804 17.5 14.7348 17.5 15V20.5863L18.7925 19.2925C18.8854 19.1995 18.9957 19.1258 19.1171 19.0754C19.2385 19.0251 19.3686 18.9992 19.5 18.9992C19.6314 18.9992 19.7615 19.0251 19.8829 19.0754C20.0043 19.1258 20.1146 19.1995 20.2075 19.2925Z" fill="white"/>
</svg>
